<svg xmlns="http://www.w3.org/2000/svg" viewBox="0 0 1200 760" preserveAspectRatio="xMidYMid slice">
<defs>
  <linearGradient id="sky" x1="0" y1="0" x2="0" y2="1"><stop stop-color="#9fc7dc"/><stop offset="1" stop-color="#dbe8ec"/></linearGradient>
  <linearGradient id="wall" x1="0" y1="0" x2="0" y2="1"><stop stop-color="#f4efe7"/><stop offset="1" stop-color="#cfc7bb"/></linearGradient>
  <linearGradient id="tile" x1="0" y1="0" x2="1" y2="1"><stop stop-color="#d56d39"/><stop offset=".55" stop-color="#b74f27"/><stop offset="1" stop-color="#8e351c"/></linearGradient>
  <linearGradient id="panel" x1="0" y1="0" x2="1" y2="1"><stop stop-color="#071d31"/><stop offset=".5" stop-color="#123d63"/><stop offset="1" stop-color="#061726"/></linearGradient>
  <pattern id="tiles" width="34" height="22" patternUnits="userSpaceOnUse"><rect width="34" height="22" fill="url(#tile)"/><path d="M0 2h34M0 21h34M17 2v19" stroke="#7f2d19" stroke-width="2" opacity=".55"/><path d="M0 11h34" stroke="#ef9a68" stroke-width="1" opacity=".35"/></pattern>
  <pattern id="cells" width="28" height="22" patternUnits="userSpaceOnUse"><rect width="28" height="22" fill="url(#panel)"/><path d="M14 0v22M0 11h28" stroke="#6fa2c7" stroke-width="1" opacity=".45"/><path d="M2 2h24v18H2z" fill="none" stroke="#b7d1e2" stroke-width=".7" opacity=".35"/></pattern>
  <filter id="shadow"><feDropShadow dx="0" dy="18" stdDeviation="18" flood-color="#07131c" flood-opacity=".35"/></filter>
  <filter id="panelShadow"><feDropShadow dx="0" dy="8" stdDeviation="7" flood-color="#000" flood-opacity=".42"/></filter>
</defs>
<rect width="1200" height="760" fill="url(#sky)"/>
<g opacity=".95">
  <rect y="250" width="1200" height="510" fill="#6e925d"/>
  <g fill="#e7dfd3" stroke="#b8ae9e" stroke-width="4"><path d="M30 330l120-88 130 88v170H30z"/><path d="M930 320l120-82 120 82v180H930z"/><path d="M760 285l95-68 98 68v155H760z"/></g>
  <g fill="#bf5b32"><path d="M15 332l135-104 145 104z"/><path d="M915 322l135-99 135 99z"/><path d="M747 287l108-84 112 84z"/></g>
  <g fill="#18364c"><rect x="72" y="375" width="48" height="66"/><rect x="178" y="375" width="48" height="66"/><rect x="977" y="370" width="44" height="64"/><rect x="1080" y="370" width="44" height="64"/></g>
</g>
<g fill="#2f6d3d" opacity=".95"><circle cx="85" cy="280" r="72"/><circle cx="300" cy="250" r="92"/><circle cx="1035" cy="270" r="85"/><circle cx="870" cy="230" r="75"/></g>
<g transform="translate(600 430)" filter="url(#shadow)">
  <path d="M-440 125v210h880V125L0-165z" fill="url(#wall)" stroke="#ada397" stroke-width="6"/>
  <path d="M-485 120L0-210 485 120 0 250z" fill="url(#tiles)" stroke="#7a2a17" stroke-width="10"/>
  <path d="M0-210v460" stroke="#f0a06b" stroke-width="8" opacity=".8"/>
  <path d="M-485 120L0-210 485 120" fill="none" stroke="#f4b087" stroke-width="6" opacity=".75"/>
  <g filter="url(#panelShadow)">
    <g transform="translate(-365 -82) skewY(5)"><rect width="330" height="250" rx="7" fill="url(#cells)" stroke="#d5e5ef" stroke-width="8"/><path d="M82.5 0v250M165 0v250M247.5 0v250M0 62.5h330M0 125h330M0 187.5h330" stroke="#d5e5ef" stroke-width="3" opacity=".75"/></g>
    <g transform="translate(35 -82) skewY(-5)"><rect width="330" height="250" rx="7" fill="url(#cells)" stroke="#d5e5ef" stroke-width="8"/><path d="M82.5 0v250M165 0v250M247.5 0v250M0 62.5h330M0 125h330M0 187.5h330" stroke="#d5e5ef" stroke-width="3" opacity=".75"/></g>
  </g>
  <g fill="#263947"><rect x="-355" y="215" width="105" height="100" rx="5"/><rect x="-135" y="215" width="105" height="100" rx="5"/><rect x="30" y="215" width="105" height="100" rx="5"/><rect x="250" y="215" width="105" height="100" rx="5"/></g>
  <rect x="-40" y="-80" width="80" height="130" rx="8" fill="#e7e2da" stroke="#a9a197" stroke-width="5"/>
  <ellipse cx="-280" cy="60" rx="34" ry="22" fill="#d6dce1" stroke="#8c969f" stroke-width="5"/><path d="M-280 82v70" stroke="#8c969f" stroke-width="6"/>
  <rect x="215" y="-35" width="74" height="112" rx="8" fill="#e7e2da" stroke="#a9a197" stroke-width="5"/>
</g>
<g transform="translate(85 82)"><rect width="92" height="58" rx="5" fill="#fff"/><path d="M0 0h92v10H0zM0 48h92v10H0z" fill="#174c9b"/><path d="M46 12l11 17-11 17-11-17z" fill="none" stroke="#174c9b" stroke-width="4"/></g>
<g fill="#1f6c3d"><path d="M110 760V510c0-75 48-126 82-140-20 55-14 106 20 148-30-10-52-9-67 3 40 27 66 67 70 117-37-24-72-30-105-17v139z"/><path d="M1060 760V500c0-72-48-122-82-136 20 55 14 102-20 145 30-10 52-9 67 3-40 26-66 64-70 114 37-24 72-30 105-17v151z"/></g>
<rect width="1200" height="760" fill="none" stroke="#ffffff" stroke-opacity=".22" stroke-width="8"/>
</svg>